<svg width="133" height="106" viewBox="0 0 133 106" fill="white" xmlns="http://www.w3.org/2000/svg">
	<path d="M92.3281 94H77.4688L77.5625 83.0312H92.3281C96.0156 83.0312 99.125 82.2031 101.656 80.5469C104.188 78.8594 106.094 76.4062 107.375 73.1875C108.688 69.9688 109.344 66.0781 109.344 61.5156V58.1875C109.344 54.6875 108.969 51.6094 108.219 48.9531C107.5 46.2969 106.422 44.0625 104.984 42.25C103.547 40.4375 101.781 39.0781 99.6875 38.1719C97.5938 37.2344 95.1875 36.7656 92.4688 36.7656H77.1875V25.75H92.4688C97.0312 25.75 101.203 26.5313 104.984 28.0938C108.797 29.625 112.094 31.8281 114.875 34.7031C117.656 37.5781 119.797 41.0156 121.297 45.0156C122.828 48.9844 123.594 53.4062 123.594 58.2812V61.5156C123.594 66.3594 122.828 70.7812 121.297 74.7812C119.797 78.7812 117.656 82.2188 114.875 85.0938C112.125 87.9375 108.828 90.1406 104.984 91.7031C101.172 93.2344 96.9531 94 92.3281 94ZM85.4375 25.75V94H71.375V25.75H85.4375Z" fill="white"/>
	<path d="M38 94.6875L66.6875 15H75.0625L41.1875 106H35L38 94.6875ZM8.375 15L36.9375 94.6875L40.0625 106H33.8125L0 15H8.375Z" fill="white"/>
	<path d="M93.5 106H72.875L73 99.4375H93.5C100.042 99.4375 105.667 97.9792 110.375 95.0625C115.125 92.1042 118.792 88.0208 121.375 82.8125C123.958 77.6042 125.25 71.5625 125.25 64.6875V56.1875C125.25 50.9375 124.5 46.1875 123 41.9375C121.542 37.6875 119.438 34.0625 116.688 31.0625C113.938 28.0208 110.646 25.6875 106.812 24.0625C103.021 22.4375 98.7708 21.625 94.0625 21.625H72.5V15H94.0625C99.7292 15 104.917 15.9792 109.625 17.9375C114.375 19.8542 118.479 22.6458 121.938 26.3125C125.438 29.9375 128.125 34.2917 130 39.375C131.917 44.4583 132.875 50.125 132.875 56.375V64.6875C132.875 70.9375 131.917 76.6042 130 81.6875C128.125 86.7708 125.438 91.125 121.938 94.75C118.438 98.375 114.292 101.167 109.5 103.125C104.708 105.042 99.375 106 93.5 106ZM76.3125 15V106H68.625V15H76.3125Z" fill="black"/>
	<path d="M36.8438 54.75L52.9219 0.75H68.5781L44.8125 69H34.5L36.8438 54.75ZM22.0312 0.75L38.0625 54.75L40.5 69H30.0938L6.46875 0.75H22.0312Z" fill="black"/>
</svg>
